<svg xmlns="http://www.w3.org/2000/svg" xmlns:xlink="http://www.w3.org/1999/xlink" width="1020" height="150"><rect width="1020" height="1150.63" rx="0" ry="0" class="a"/><svg height="1150.63" viewBox="0 0 102 115.063" width="1020" xmlns="http://www.w3.org/2000/svg" xmlns:xlink="http://www.w3.org/1999/xlink"><style>@keyframes i{0%{transform:translateX(0)}.5%{transform:translateX(-102px)}.6%{transform:translateX(-204px)}29.4%{transform:translateX(-306px)}34.6%{transform:translateX(-612px)}34.7%{transform:translateX(-714px)}62.6%{transform:translateX(-816px)}63.3%{transform:translateX(-1734px)}97.5%{transform:translateX(-1836px)}to{transform:translateX(-2244px)}}.a{fill:#282d35}.c{fill:#b9c0cb;white-space:pre}.d{fill:#a8cc8c;font-weight:700}.d,.e,.f{white-space:pre}.e{fill:#dbab79;font-weight:700}.f{fill:#71bef2}.k{fill:#b9c0cb}.l{fill:#282d35;white-space:pre}</style><g font-family="Monaco,Consolas,Menlo,'Bitstream Vera Sans Mono','Powerline Symbols',monospace" font-size="1.67"><defs><symbol id="1"><text y="1.67" class="c">[</text><text x="1.002" y="1.67" class="d">eduadmin@TEST-REDOS-8</text><text x="23.046" y="1.67" class="c">scripts]</text><text x="31.062" y="1.67" class="e">$</text></symbol><symbol id="2"><text y="1.67" class="c">[</text><text x="1.002" y="1.67" class="d">eduadmin@TEST-REDOS-8</text><text x="23.046" y="1.67" class="c">scripts]</text><text x="31.062" y="1.67" class="e">$</text><text x="33.066" y="1.67" class="c">sudo</text><text x="38.076" y="1.67" class="c">~/scripts/redos_workstation_setup_tool_cli.sh</text><text x="84.168" y="1.67" class="c">check-os</text></symbol><symbol id="3"><text y="1.67" class="c">[sudo]</text><text x="7.014" y="1.67" class="c">пароль</text><text x="14.028" y="1.67" class="c">для</text><text x="18.036" y="1.67" class="c">eduadmin:</text></symbol><symbol id="4"><text y="1.67" class="f">Обнаружена</text><text x="11.022" y="1.67" class="f">ОС:</text><text x="15.03" y="1.67" class="f">RED</text><text x="19.038" y="1.67" class="f">OS</text><text x="22.044" y="1.67" class="f">8.0.2</text></symbol><symbol id="5"><text y="1.67" class="f">Основная</text><text x="9.018" y="1.67" class="f">версия</text><text x="16.032" y="1.67" class="f">РЕД</text><text x="20.04" y="1.67" class="f">ОС:</text><text x="24.048" y="1.67" class="f">8</text></symbol><symbol id="6"><text y="1.67" class="e">Для</text><text x="4.008" y="1.67" class="e">РЕД</text><text x="8.016" y="1.67" class="e">ОС</text><text x="11.022" y="1.67" class="e">8.0.2</text><text x="17.034" y="1.67" class="e">ViPNet</text><text x="24.048" y="1.67" class="e">будет</text><text x="30.06" y="1.67" class="e">устанавливаться</text><text x="46.092" y="1.67" class="e">из</text><text x="49.098" y="1.67" class="e">пакетов</text><text x="57.114" y="1.67" class="e">для</text><text x="61.122" y="1.67" class="e">РЕД</text><text x="65.13" y="1.67" class="e">ОС</text><text x="68.136" y="1.67" class="e">8+.</text></symbol><symbol id="7"><text y="1.67" class="c">[</text><text x="1.002" y="1.67" class="d">eduadmin@TEST-REDOS-8</text><text x="23.046" y="1.67" class="c">scripts]</text><text x="31.062" y="1.67" class="e">$</text><text x="33.066" y="1.67" class="c">exit</text></symbol><symbol id="8"><text y="1.67" class="c">exit</text></symbol><symbol id="a"><path fill="transparent" d="M0 0h102v53H0z"/></symbol><symbol id="b"><path fill="#6f7683" d="M0 0h1.102v2.171H0z"/></symbol></defs><path class="a" d="M0 0h102v115.063H0z"/><g style="animation-duration:6.7977915s;animation-iteration-count:infinite;animation-name:i;animation-timing-function:steps(1,end)"><svg width="2346"><svg><use xlink:href="#a"/><use xlink:href="#b" x="-.004"/></svg><svg x="102"><use xlink:href="#a"/><use xlink:href="#b" x="-.004"/></svg><svg x="204"><use xlink:href="#a"/><use xlink:href="#b" x="32.996"/><use xlink:href="#1"/></svg><svg x="306"><use xlink:href="#a"/><use xlink:href="#b" x="91.996"/><text y="1.67" class="c">[</text><text x="1.002" y="1.67" class="d">eduadmin@TEST-REDOS-8</text><text x="23.046" y="1.67" class="c">scripts]</text><text x="31.062" y="1.67" class="e">$</text><path class="k" d="M33.066 0h59v2.171h-59z"/><text x="33.066" y="1.67" class="l">sudo ~/scripts/redos_workstation_setup_tool_cli.sh check-os</text></svg><svg x="408"><use xlink:href="#a"/><use xlink:href="#b" x="91.996"/><use xlink:href="#2"/></svg><svg x="510"><use xlink:href="#a"/><use xlink:href="#b" x="-.004" y="2.146"/><use xlink:href="#2"/></svg><svg x="612"><use xlink:href="#a"/><use xlink:href="#b" x="-.004" y="2.146"/><use xlink:href="#2"/></svg><svg x="714"><use xlink:href="#a"/><use xlink:href="#b" x="27.996" y="2.146"/><use xlink:href="#2"/><use xlink:href="#3" y="2.171"/></svg><svg x="816"><use xlink:href="#a"/><use xlink:href="#b" x="-.004" y="4.317"/><use xlink:href="#2"/><use xlink:href="#3" y="2.171"/></svg><svg x="918"><use xlink:href="#a"/><use xlink:href="#b" x="26.996" y="4.317"/><use xlink:href="#2"/><use xlink:href="#3" y="2.171"/><use xlink:href="#4" y="4.342"/></svg><svg x="1020"><use xlink:href="#a"/><use xlink:href="#b" x="-.004" y="6.488"/><use xlink:href="#2"/><use xlink:href="#3" y="2.171"/><use xlink:href="#4" y="4.342"/></svg><svg x="1122"><use xlink:href="#a"/><use xlink:href="#b" x="24.996" y="6.488"/><use xlink:href="#2"/><use xlink:href="#3" y="2.171"/><use xlink:href="#4" y="4.342"/><use xlink:href="#5" y="6.513"/></svg><svg x="1224"><use xlink:href="#a"/><use xlink:href="#b" x="-.004" y="8.659"/><use xlink:href="#2"/><use xlink:href="#3" y="2.171"/><use xlink:href="#4" y="4.342"/><use xlink:href="#5" y="6.513"/></svg><svg x="1326"><use xlink:href="#a"/><use xlink:href="#b" x="70.996" y="8.659"/><use xlink:href="#2"/><use xlink:href="#3" y="2.171"/><use xlink:href="#4" y="4.342"/><use xlink:href="#5" y="6.513"/><use xlink:href="#6" y="8.684"/></svg><svg x="1428"><use xlink:href="#a"/><use xlink:href="#b" x="-.004" y="10.83"/><use xlink:href="#2"/><use xlink:href="#3" y="2.171"/><use xlink:href="#4" y="4.342"/><use xlink:href="#5" y="6.513"/><use xlink:href="#6" y="8.684"/></svg><svg x="1530"><use xlink:href="#a"/><use xlink:href="#b" x="-.004" y="10.83"/><use xlink:href="#2"/><use xlink:href="#3" y="2.171"/><use xlink:href="#4" y="4.342"/><use xlink:href="#5" y="6.513"/><use xlink:href="#6" y="8.684"/></svg><svg x="1632"><use xlink:href="#a"/><use xlink:href="#b" x="-.004" y="10.83"/><use xlink:href="#2"/><use xlink:href="#3" y="2.171"/><use xlink:href="#4" y="4.342"/><use xlink:href="#5" y="6.513"/><use xlink:href="#6" y="8.684"/></svg><svg x="1734"><use xlink:href="#a"/><use xlink:href="#b" x="32.996" y="10.83"/><use xlink:href="#2"/><use xlink:href="#3" y="2.171"/><use xlink:href="#4" y="4.342"/><use xlink:href="#5" y="6.513"/><use xlink:href="#6" y="8.684"/><use xlink:href="#1" y="10.855"/></svg><svg x="1836"><use xlink:href="#a"/><use xlink:href="#b" x="36.996" y="10.83"/><use xlink:href="#2"/><use xlink:href="#3" y="2.171"/><use xlink:href="#4" y="4.342"/><use xlink:href="#5" y="6.513"/><use xlink:href="#6" y="8.684"/><text y="12.525" class="c">[</text><text x="1.002" y="12.525" class="d">eduadmin@TEST-REDOS-8</text><text x="23.046" y="12.525" class="c">scripts]</text><text x="31.062" y="12.525" class="e">$</text><path class="k" d="M33.066 10.855h4v2.171h-4z"/><text x="33.066" y="12.525" class="l">exit</text></svg><svg x="1938"><use xlink:href="#a"/><use xlink:href="#b" x="36.996" y="10.83"/><use xlink:href="#2"/><use xlink:href="#3" y="2.171"/><use xlink:href="#4" y="4.342"/><use xlink:href="#5" y="6.513"/><use xlink:href="#6" y="8.684"/><use xlink:href="#7" y="10.855"/></svg><svg x="2040"><use xlink:href="#a"/><use xlink:href="#b" x="-.004" y="13.001"/><use xlink:href="#2"/><use xlink:href="#3" y="2.171"/><use xlink:href="#4" y="4.342"/><use xlink:href="#5" y="6.513"/><use xlink:href="#6" y="8.684"/><use xlink:href="#7" y="10.855"/></svg><svg x="2142"><use xlink:href="#a"/><use xlink:href="#b" x="3.996" y="13.001"/><use xlink:href="#2"/><use xlink:href="#3" y="2.171"/><use xlink:href="#4" y="4.342"/><use xlink:href="#5" y="6.513"/><use xlink:href="#6" y="8.684"/><use xlink:href="#7" y="10.855"/><use xlink:href="#8" y="13.026"/></svg><svg x="2244"><use xlink:href="#a"/><use xlink:href="#b" x="-.004" y="15.172"/><use xlink:href="#2"/><use xlink:href="#3" y="2.171"/><use xlink:href="#4" y="4.342"/><use xlink:href="#5" y="6.513"/><use xlink:href="#6" y="8.684"/><use xlink:href="#7" y="10.855"/><use xlink:href="#8" y="13.026"/></svg></svg></g></g></svg></svg>