<svg xmlns="http://www.w3.org/2000/svg" xmlns:xlink="http://www.w3.org/1999/xlink" width="1020" height="1150.63"><rect width="1020" height="1150.63" rx="0" ry="0" class="a"/><svg height="1150.63" viewBox="0 0 102 115.063" width="1020" xmlns="http://www.w3.org/2000/svg" xmlns:xlink="http://www.w3.org/1999/xlink"><style>@keyframes h{0%{transform:translateX(0)}1%{transform:translateX(-204px)}10.6%{transform:translateX(-306px)}18.6%{transform:translateX(-510px)}18.7%{transform:translateX(-612px)}54.9%{transform:translateX(-714px)}56%{transform:translateX(-1122px)}56.1%{transform:translateX(-1326px)}90.5%{transform:translateX(-1428px)}93.7%{transform:translateX(-1530px)}94.5%{transform:translateX(-1632px)}95.9%{transform:translateX(-1734px)}to{transform:translateX(-2040px)}}.a{fill:#282d35}.c,.d,.e{fill:#b9c0cb;white-space:pre}.d,.e{fill:#a8cc8c;font-weight:700}.e{fill:#dbab79}</style><g font-family="Monaco,Consolas,Menlo,'Bitstream Vera Sans Mono','Powerline Symbols',monospace" font-size="1.67"><defs><symbol id="1"><text y="1.67" class="c">[</text><text x="1.002" y="1.67" class="d">eduadmin@TEST-REDOS-8</text><text x="23.046" y="1.67" class="c">~]</text><text x="25.05" y="1.67" class="e">$</text></symbol><symbol id="2"><text y="1.67" class="c">[</text><text x="1.002" y="1.67" class="d">eduadmin@TEST-REDOS-8</text><text x="23.046" y="1.67" class="c">~]</text><text x="25.05" y="1.67" class="e">$</text><text x="27.054" y="1.67" class="c">sudo</text><text x="32.064" y="1.67" class="c">~/scripts/redos_workstation_setup_tool_cli.sh</text><text x="78.156" y="1.67" class="c">help</text></symbol><symbol id="3"><text y="1.67" class="c">[sudo]</text><text x="7.014" y="1.67" class="c">пароль</text><text x="14.028" y="1.67" class="c">для</text><text x="18.036" y="1.67" class="c">eduadmin:</text></symbol><symbol id="4"><text y="1.67" class="c">redos-setup</text><text x="12.024" y="1.67" class="c">-</text><text x="14.028" y="1.67" class="c">CLI</text><text x="18.036" y="1.67" class="c">для</text><text x="22.044" y="1.67" class="c">настройки</text><text x="32.064" y="1.67" class="c">рабочих</text><text x="40.08" y="1.67" class="c">мест</text><text x="45.09" y="1.67" class="c">на</text><text x="48.096" y="1.67" class="c">РЕД</text><text x="52.104" y="1.67" class="c">ОС</text></symbol><symbol id="5"><text x="2.004" y="1.67" class="c">doctor</text></symbol><symbol id="6"><text y="1.67" class="c">Components:</text></symbol><symbol id="7"><text x="2.004" y="1.67" class="c">base</text></symbol><symbol id="8"><text x="2.004" y="1.67" class="c">update-system</text></symbol><symbol id="9"><text x="2.004" y="1.67" class="c">kernel</text></symbol><symbol id="10"><text x="2.004" y="1.67" class="c">yandex-browser</text></symbol><symbol id="11"><text x="2.004" y="1.67" class="c">r7-office</text></symbol><symbol id="12"><text x="2.004" y="1.67" class="c">max</text></symbol><symbol id="13"><text x="2.004" y="1.67" class="c">liberation-fonts</text></symbol><symbol id="14"><text x="2.004" y="1.67" class="c">chromium-gost</text></symbol><symbol id="15"><text x="2.004" y="1.67" class="c">sreda</text></symbol><symbol id="16"><text x="2.004" y="1.67" class="c">vk-messenger</text></symbol><symbol id="17"><text x="2.004" y="1.67" class="c">telegram</text></symbol><symbol id="18"><text x="2.004" y="1.67" class="c">messengers</text></symbol><symbol id="19"><text x="2.004" y="1.67" class="c">kaspersky</text></symbol><symbol id="20"><text x="2.004" y="1.67" class="c">vipnet</text></symbol><symbol id="21"><text x="2.004" y="1.67" class="c">1c</text></symbol><symbol id="22"><text x="2.004" y="1.67" class="c">trim</text></symbol><symbol id="23"><text x="2.004" y="1.67" class="c">grub</text></symbol><symbol id="24"><text x="2.004" y="1.67" class="c">ksg</text></symbol><symbol id="25"><text x="2.004" y="1.67" class="c">timedate</text></symbol><symbol id="26"><text x="2.004" y="1.67" class="c">auto-update</text></symbol><symbol id="27"><text x="2.004" y="1.67" class="c">all</text></symbol><symbol id="28"><text y="1.67" class="c">Removable</text><text x="10.02" y="1.67" class="c">components:</text></symbol><symbol id="29"><text y="1.67" class="c">Global</text><text x="7.014" y="1.67" class="c">options:</text></symbol><symbol id="30"><text x="2.004" y="1.67" class="c">-y,</text><text x="6.012" y="1.67" class="c">--yes</text><text x="23.046" y="1.67" class="c">Не</text><text x="26.052" y="1.67" class="c">задавать</text><text x="35.07" y="1.67" class="c">вопросы</text><text x="43.086" y="1.67" class="c">подтверждения</text></symbol><symbol id="31"><text x="2.004" y="1.67" class="c">--dry-run</text><text x="23.046" y="1.67" class="c">Только</text><text x="30.06" y="1.67" class="c">показать</text><text x="39.078" y="1.67" class="c">план</text><text x="44.088" y="1.67" class="c">действий</text></symbol><symbol id="32"><text x="2.004" y="1.67" class="c">--verbose</text><text x="23.046" y="1.67" class="c">Подробный</text><text x="33.066" y="1.67" class="c">вывод</text></symbol><symbol id="33"><text x="2.004" y="1.67" class="c">--workdir</text><text x="12.024" y="1.67" class="c">PATH</text><text x="23.046" y="1.67" class="c">Переопределить</text><text x="38.076" y="1.67" class="c">рабочую</text><text x="46.092" y="1.67" class="c">директорию</text></symbol><symbol id="34"><text x="2.004" y="1.67" class="c">--variant</text><text x="12.024" y="1.67" class="c">VALUE</text><text x="23.046" y="1.67" class="c">Вариант</text><text x="31.062" y="1.67" class="c">ViPNet:</text><text x="39.078" y="1.67" class="c">client</text><text x="46.092" y="1.67" class="c">или</text><text x="50.1" y="1.67" class="c">dp</text></symbol><symbol id="35"><text x="2.004" y="1.67" class="c">--no-color</text><text x="23.046" y="1.67" class="c">Отключить</text><text x="33.066" y="1.67" class="c">цветной</text><text x="41.082" y="1.67" class="c">вывод</text></symbol><symbol id="36"><text x="2.004" y="1.67" class="c">--force</text><text x="23.046" y="1.67" class="c">Зарезервировано</text><text x="39.078" y="1.67" class="c">для</text><text x="43.086" y="1.67" class="c">будущих</text><text x="51.102" y="1.67" class="c">сценариев</text></symbol><symbol id="37"><text x="2.004" y="1.67" class="c">--json</text><text x="23.046" y="1.67" class="c">JSON-вывод</text><text x="34.068" y="1.67" class="c">для</text><text x="38.076" y="1.67" class="c">check-os</text></symbol><symbol id="38"><text y="1.67" class="c">[</text><text x="1.002" y="1.67" class="d">eduadmin@TEST-REDOS-8</text><text x="23.046" y="1.67" class="c">~]</text><text x="25.05" y="1.67" class="e">$</text><text x="27.054" y="1.67" class="c">exit</text></symbol><symbol id="39"><text y="1.67" class="c">exit</text></symbol><symbol id="a"><path fill="transparent" d="M0 0h102v53H0z"/></symbol><symbol id="b"><path fill="#6f7683" d="M0 0h1.102v2.171H0z"/></symbol></defs><path class="a" d="M0 0h102v115.063H0z"/><g style="animation-duration:3.99916875s;animation-iteration-count:infinite;animation-name:h;animation-timing-function:steps(1,end)"><svg width="2142"><svg><use xlink:href="#a"/><use xlink:href="#b" x="-.004"/></svg><svg x="102"><use xlink:href="#a"/><use xlink:href="#b" x="-.004"/></svg><svg x="204"><use xlink:href="#a"/><use xlink:href="#b" x="26.996"/><use xlink:href="#1"/></svg><svg x="306"><use xlink:href="#a"/><use xlink:href="#b" x="81.996"/><text y="1.67" class="c">[</text><text x="1.002" y="1.67" class="d">eduadmin@TEST-REDOS-8</text><text x="23.046" y="1.67" class="c">~]</text><text x="25.05" y="1.67" class="e">$</text><path fill="#b9c0cb" d="M27.054 0h55v2.171h-55z"/><text x="27.054" y="1.67" style="white-space:pre" fill="#282d35">sudo ~/scripts/redos_workstation_setup_tool_cli.sh help</text></svg><svg x="408"><use xlink:href="#a"/><use xlink:href="#b" x="81.996"/><use xlink:href="#2"/></svg><svg x="510"><use xlink:href="#a"/><use xlink:href="#b" x="-.004" y="2.146"/><use xlink:href="#2"/></svg><svg x="612"><use xlink:href="#a"/><use xlink:href="#b" x="27.996" y="2.146"/><use xlink:href="#2"/><use xlink:href="#3" y="2.171"/></svg><svg x="714"><use xlink:href="#a"/><use xlink:href="#b" x="-.004" y="4.317"/><use xlink:href="#2"/><use xlink:href="#3" y="2.171"/></svg><svg x="816"><use xlink:href="#a"/><use xlink:href="#b" x="53.996" y="4.317"/><use xlink:href="#2"/><use xlink:href="#3" y="2.171"/><use xlink:href="#4" y="4.342"/></svg><svg x="918"><use xlink:href="#a"/><use xlink:href="#b" x="27.996" y="60.763"/><use xlink:href="#2"/><use xlink:href="#3" y="2.171"/><use xlink:href="#4" y="4.342"/><text y="10.354" class="c">Usage:</text><text x="2.004" y="12.525" class="c">redos_workstation_setup_tool_cli.sh</text><text x="38.076" y="12.525" class="c">help</text><text x="2.004" y="14.696" class="c">redos_workstation_setup_tool_cli.sh</text><text x="38.076" y="14.696" class="c">version</text><text x="2.004" y="16.867" class="c">redos_workstation_setup_tool_cli.sh</text><text x="38.076" y="16.867" class="c">check-os</text><text x="2.004" y="19.038" class="c">redos_workstation_setup_tool_cli.sh</text><text x="38.076" y="19.038" class="c">list</text><text x="43.086" y="19.038" class="c">[--compatible]</text><text x="2.004" y="21.209" class="c">redos_workstation_setup_tool_cli.sh</text><text x="38.076" y="21.209" class="c">install</text><text x="46.092" y="21.209" class="c">&lt;component&gt;</text><text x="58.116" y="21.209" class="c">[options]</text><text x="2.004" y="23.38" class="c">redos_workstation_setup_tool_cli.sh</text><text x="38.076" y="23.38" class="c">remove</text><text x="45.09" y="23.38" class="c">&lt;component&gt;</text><text x="57.114" y="23.38" class="c">[options]</text><text x="2.004" y="25.551" class="c">redos_workstation_setup_tool_cli.sh</text><text x="38.076" y="25.551" class="c">doctor</text><text x="2.004" y="27.722" class="c">redos_workstation_setup_tool_cli.sh</text><text x="38.076" y="27.722" class="c">interactive</text><text y="32.064" class="c">Commands:</text><text x="2.004" y="34.235" class="c">help</text><text x="6.012" y="36.406" class="c">Показать</text><text x="15.03" y="36.406" class="c">эту</text><text x="19.038" y="36.406" class="c">справку</text><text x="2.004" y="38.577" class="c">version</text><text x="6.012" y="40.748" class="c">Показать</text><text x="15.03" y="40.748" class="c">версию</text><text x="22.044" y="40.748" class="c">CLI</text><text x="2.004" y="42.919" class="c">check-os</text><text x="6.012" y="45.09" class="c">Определить</text><text x="17.034" y="45.09" class="c">ОС</text><text x="20.04" y="45.09" class="c">и</text><text x="22.044" y="45.09" class="c">показать</text><text x="31.062" y="45.09" class="c">совместимость</text><text x="2.004" y="47.261" class="c">list</text><text x="6.012" y="49.432" class="c">Показать</text><text x="15.03" y="49.432" class="c">компоненты</text><text x="2.004" y="51.603" class="c">install</text><text x="10.02" y="51.603" class="c">&lt;component&gt;</text><text x="6.012" y="53.774" class="c">Установить</text><text x="17.034" y="53.774" class="c">конкретный</text><text x="28.056" y="53.774" class="c">компонент</text><text x="38.076" y="53.774" class="c">или</text><text x="42.084" y="53.774" class="c">all</text><text x="2.004" y="55.945" class="c">remove</text><text x="9.018" y="55.945" class="c">&lt;component&gt;</text><text x="6.012" y="58.116" class="c">Удалить</text><text x="14.028" y="58.116" class="c">установленную</text><text x="28.056" y="58.116" class="c">программу</text><text x="38.076" y="58.116" class="c">или</text><text x="42.084" y="58.116" class="c">настройку,</text><text x="53.106" y="58.116" class="c">если</text><text x="58.116" y="58.116" class="c">поддерживается</text><use xlink:href="#5" y="58.617"/><text x="6.012" y="62.458" class="c">Выполнить</text><text x="16.032" y="62.458" class="c">базовую</text><text x="24.048" y="62.458" class="c">диаг</text></svg><svg x="1020"><use xlink:href="#a"/><use xlink:href="#b" x="50.996" y="112.867"/><use xlink:href="#5"/><text x="6.012" y="3.841" class="c">Выполнить</text><text x="16.032" y="3.841" class="c">базовую</text><text x="24.048" y="3.841" class="c">диагностику</text><text x="36.072" y="3.841" class="c">среды</text><text x="2.004" y="6.012" class="c">interactive</text><text x="6.012" y="8.183" class="c">Запустить</text><text x="16.032" y="8.183" class="c">workstation-сценарий</text><text x="37.074" y="8.183" class="c">в</text><text x="39.078" y="8.183" class="c">стиле</text><text x="45.09" y="8.183" class="c">redos_workstation_setup_tool.sh</text><use xlink:href="#6" y="10.855"/><use xlink:href="#7" y="13.026"/><use xlink:href="#8" y="15.197"/><use xlink:href="#9" y="17.368"/><use xlink:href="#10" y="19.539"/><use xlink:href="#11" y="21.71"/><use xlink:href="#12" y="23.881"/><use xlink:href="#13" y="26.052"/><use xlink:href="#14" y="28.223"/><use xlink:href="#15" y="30.394"/><use xlink:href="#16" y="32.565"/><use xlink:href="#17" y="34.736"/><use xlink:href="#18" y="36.907"/><use xlink:href="#19" y="39.078"/><use xlink:href="#20" y="41.249"/><use xlink:href="#21" y="43.42"/><use xlink:href="#22" y="45.591"/><use xlink:href="#23" y="47.762"/><use xlink:href="#24" y="49.933"/><use xlink:href="#25" y="52.104"/><use xlink:href="#26" y="54.275"/><use xlink:href="#27" y="56.446"/><use xlink:href="#28" y="60.788"/><use xlink:href="#10" y="62.959"/><use xlink:href="#11" y="65.13"/><use xlink:href="#12" y="67.301"/><use xlink:href="#13" y="69.472"/><use xlink:href="#14" y="71.643"/><use xlink:href="#15" y="73.814"/><use xlink:href="#16" y="75.985"/><use xlink:href="#17" y="78.156"/><use xlink:href="#18" y="80.327"/><use xlink:href="#19" y="82.498"/><use xlink:href="#20" y="84.669"/><use xlink:href="#21" y="86.84"/><use xlink:href="#22" y="89.011"/><use xlink:href="#24" y="91.182"/><use xlink:href="#25" y="93.353"/><use xlink:href="#26" y="95.524"/><use xlink:href="#27" y="97.695"/><use xlink:href="#29" y="102.037"/><use xlink:href="#30" y="104.208"/><use xlink:href="#31" y="106.379"/><use xlink:href="#32" y="108.55"/><use xlink:href="#33" y="110.721"/><text x="2.004" y="114.562" class="c">--variant</text><text x="12.024" y="114.562" class="c">VALUE</text><text x="23.046" y="114.562" class="c">Вариант</text><text x="31.062" y="114.562" class="c">ViPNet:</text><text x="39.078" y="114.562" class="c">client</text><text x="46.092" y="114.562" class="c">или</text><text x="50.1" y="114.562" class="c">d</text></svg><svg x="1122"><use xlink:href="#a"/><use xlink:href="#b" x="-.004" y="112.867"/><use xlink:href="#6" y="2.171"/><use xlink:href="#7" y="4.342"/><use xlink:href="#8" y="6.513"/><use xlink:href="#9" y="8.684"/><use xlink:href="#10" y="10.855"/><use xlink:href="#11" y="13.026"/><use xlink:href="#12" y="15.197"/><use xlink:href="#13" y="17.368"/><use xlink:href="#14" y="19.539"/><use xlink:href="#15" y="21.71"/><use xlink:href="#16" y="23.881"/><use xlink:href="#17" y="26.052"/><use xlink:href="#18" y="28.223"/><use xlink:href="#19" y="30.394"/><use xlink:href="#20" y="32.565"/><use xlink:href="#21" y="34.736"/><use xlink:href="#22" y="36.907"/><use xlink:href="#23" y="39.078"/><use xlink:href="#24" y="41.249"/><use xlink:href="#25" y="43.42"/><use xlink:href="#26" y="45.591"/><use xlink:href="#27" y="47.762"/><use xlink:href="#28" y="52.104"/><use xlink:href="#10" y="54.275"/><use xlink:href="#11" y="56.446"/><use xlink:href="#12" y="58.617"/><use xlink:href="#13" y="60.788"/><use xlink:href="#14" y="62.959"/><use xlink:href="#15" y="65.13"/><use xlink:href="#16" y="67.301"/><use xlink:href="#17" y="69.472"/><use xlink:href="#18" y="71.643"/><use xlink:href="#19" y="73.814"/><use xlink:href="#20" y="75.985"/><use xlink:href="#21" y="78.156"/><use xlink:href="#22" y="80.327"/><use xlink:href="#24" y="82.498"/><use xlink:href="#25" y="84.669"/><use xlink:href="#26" y="86.84"/><use xlink:href="#27" y="89.011"/><use xlink:href="#29" y="93.353"/><use xlink:href="#30" y="95.524"/><use xlink:href="#31" y="97.695"/><use xlink:href="#32" y="99.866"/><use xlink:href="#33" y="102.037"/><use xlink:href="#34" y="104.208"/><use xlink:href="#35" y="106.379"/><use xlink:href="#36" y="108.55"/><use xlink:href="#37" y="110.721"/></svg><svg x="1224"><use xlink:href="#a"/><use xlink:href="#b" x="-.004" y="112.867"/><use xlink:href="#6" y="2.171"/><use xlink:href="#7" y="4.342"/><use xlink:href="#8" y="6.513"/><use xlink:href="#9" y="8.684"/><use xlink:href="#10" y="10.855"/><use xlink:href="#11" y="13.026"/><use xlink:href="#12" y="15.197"/><use xlink:href="#13" y="17.368"/><use xlink:href="#14" y="19.539"/><use xlink:href="#15" y="21.71"/><use xlink:href="#16" y="23.881"/><use xlink:href="#17" y="26.052"/><use xlink:href="#18" y="28.223"/><use xlink:href="#19" y="30.394"/><use xlink:href="#20" y="32.565"/><use xlink:href="#21" y="34.736"/><use xlink:href="#22" y="36.907"/><use xlink:href="#23" y="39.078"/><use xlink:href="#24" y="41.249"/><use xlink:href="#25" y="43.42"/><use xlink:href="#26" y="45.591"/><use xlink:href="#27" y="47.762"/><use xlink:href="#28" y="52.104"/><use xlink:href="#10" y="54.275"/><use xlink:href="#11" y="56.446"/><use xlink:href="#12" y="58.617"/><use xlink:href="#13" y="60.788"/><use xlink:href="#14" y="62.959"/><use xlink:href="#15" y="65.13"/><use xlink:href="#16" y="67.301"/><use xlink:href="#17" y="69.472"/><use xlink:href="#18" y="71.643"/><use xlink:href="#19" y="73.814"/><use xlink:href="#20" y="75.985"/><use xlink:href="#21" y="78.156"/><use xlink:href="#22" y="80.327"/><use xlink:href="#24" y="82.498"/><use xlink:href="#25" y="84.669"/><use xlink:href="#26" y="86.84"/><use xlink:href="#27" y="89.011"/><use xlink:href="#29" y="93.353"/><use xlink:href="#30" y="95.524"/><use xlink:href="#31" y="97.695"/><use xlink:href="#32" y="99.866"/><use xlink:href="#33" y="102.037"/><use xlink:href="#34" y="104.208"/><use xlink:href="#35" y="106.379"/><use xlink:href="#36" y="108.55"/><use xlink:href="#37" y="110.721"/></svg><svg x="1326"><use xlink:href="#a"/><use xlink:href="#b" x="26.996" y="112.867"/><use xlink:href="#6" y="2.171"/><use xlink:href="#7" y="4.342"/><use xlink:href="#8" y="6.513"/><use xlink:href="#9" y="8.684"/><use xlink:href="#10" y="10.855"/><use xlink:href="#11" y="13.026"/><use xlink:href="#12" y="15.197"/><use xlink:href="#13" y="17.368"/><use xlink:href="#14" y="19.539"/><use xlink:href="#15" y="21.71"/><use xlink:href="#16" y="23.881"/><use xlink:href="#17" y="26.052"/><use xlink:href="#18" y="28.223"/><use xlink:href="#19" y="30.394"/><use xlink:href="#20" y="32.565"/><use xlink:href="#21" y="34.736"/><use xlink:href="#22" y="36.907"/><use xlink:href="#23" y="39.078"/><use xlink:href="#24" y="41.249"/><use xlink:href="#25" y="43.42"/><use xlink:href="#26" y="45.591"/><use xlink:href="#27" y="47.762"/><use xlink:href="#28" y="52.104"/><use xlink:href="#10" y="54.275"/><use xlink:href="#11" y="56.446"/><use xlink:href="#12" y="58.617"/><use xlink:href="#13" y="60.788"/><use xlink:href="#14" y="62.959"/><use xlink:href="#15" y="65.13"/><use xlink:href="#16" y="67.301"/><use xlink:href="#17" y="69.472"/><use xlink:href="#18" y="71.643"/><use xlink:href="#19" y="73.814"/><use xlink:href="#20" y="75.985"/><use xlink:href="#21" y="78.156"/><use xlink:href="#22" y="80.327"/><use xlink:href="#24" y="82.498"/><use xlink:href="#25" y="84.669"/><use xlink:href="#26" y="86.84"/><use xlink:href="#27" y="89.011"/><use xlink:href="#29" y="93.353"/><use xlink:href="#30" y="95.524"/><use xlink:href="#31" y="97.695"/><use xlink:href="#32" y="99.866"/><use xlink:href="#33" y="102.037"/><use xlink:href="#34" y="104.208"/><use xlink:href="#35" y="106.379"/><use xlink:href="#36" y="108.55"/><use xlink:href="#37" y="110.721"/><use xlink:href="#1" y="112.892"/></svg><svg x="1428"><use xlink:href="#a"/><use xlink:href="#b" x="27.996" y="112.867"/><use xlink:href="#6" y="2.171"/><use xlink:href="#7" y="4.342"/><use xlink:href="#8" y="6.513"/><use xlink:href="#9" y="8.684"/><use xlink:href="#10" y="10.855"/><use xlink:href="#11" y="13.026"/><use xlink:href="#12" y="15.197"/><use xlink:href="#13" y="17.368"/><use xlink:href="#14" y="19.539"/><use xlink:href="#15" y="21.71"/><use xlink:href="#16" y="23.881"/><use xlink:href="#17" y="26.052"/><use xlink:href="#18" y="28.223"/><use xlink:href="#19" y="30.394"/><use xlink:href="#20" y="32.565"/><use xlink:href="#21" y="34.736"/><use xlink:href="#22" y="36.907"/><use xlink:href="#23" y="39.078"/><use xlink:href="#24" y="41.249"/><use xlink:href="#25" y="43.42"/><use xlink:href="#26" y="45.591"/><use xlink:href="#27" y="47.762"/><use xlink:href="#28" y="52.104"/><use xlink:href="#10" y="54.275"/><use xlink:href="#11" y="56.446"/><use xlink:href="#12" y="58.617"/><use xlink:href="#13" y="60.788"/><use xlink:href="#14" y="62.959"/><use xlink:href="#15" y="65.13"/><use xlink:href="#16" y="67.301"/><use xlink:href="#17" y="69.472"/><use xlink:href="#18" y="71.643"/><use xlink:href="#19" y="73.814"/><use xlink:href="#20" y="75.985"/><use xlink:href="#21" y="78.156"/><use xlink:href="#22" y="80.327"/><use xlink:href="#24" y="82.498"/><use xlink:href="#25" y="84.669"/><use xlink:href="#26" y="86.84"/><use xlink:href="#27" y="89.011"/><use xlink:href="#29" y="93.353"/><use xlink:href="#30" y="95.524"/><use xlink:href="#31" y="97.695"/><use xlink:href="#32" y="99.866"/><use xlink:href="#33" y="102.037"/><use xlink:href="#34" y="104.208"/><use xlink:href="#35" y="106.379"/><use xlink:href="#36" y="108.55"/><use xlink:href="#37" y="110.721"/><text y="114.562" class="c">[</text><text x="1.002" y="114.562" class="d">eduadmin@TEST-REDOS-8</text><text x="23.046" y="114.562" class="c">~]</text><text x="25.05" y="114.562" class="e">$</text><text x="27.054" y="114.562" class="c">e</text></svg><svg x="1530"><use xlink:href="#a"/><use xlink:href="#b" x="28.996" y="112.867"/><use xlink:href="#6" y="2.171"/><use xlink:href="#7" y="4.342"/><use xlink:href="#8" y="6.513"/><use xlink:href="#9" y="8.684"/><use xlink:href="#10" y="10.855"/><use xlink:href="#11" y="13.026"/><use xlink:href="#12" y="15.197"/><use xlink:href="#13" y="17.368"/><use xlink:href="#14" y="19.539"/><use xlink:href="#15" y="21.71"/><use xlink:href="#16" y="23.881"/><use xlink:href="#17" y="26.052"/><use xlink:href="#18" y="28.223"/><use xlink:href="#19" y="30.394"/><use xlink:href="#20" y="32.565"/><use xlink:href="#21" y="34.736"/><use xlink:href="#22" y="36.907"/><use xlink:href="#23" y="39.078"/><use xlink:href="#24" y="41.249"/><use xlink:href="#25" y="43.42"/><use xlink:href="#26" y="45.591"/><use xlink:href="#27" y="47.762"/><use xlink:href="#28" y="52.104"/><use xlink:href="#10" y="54.275"/><use xlink:href="#11" y="56.446"/><use xlink:href="#12" y="58.617"/><use xlink:href="#13" y="60.788"/><use xlink:href="#14" y="62.959"/><use xlink:href="#15" y="65.13"/><use xlink:href="#16" y="67.301"/><use xlink:href="#17" y="69.472"/><use xlink:href="#18" y="71.643"/><use xlink:href="#19" y="73.814"/><use xlink:href="#20" y="75.985"/><use xlink:href="#21" y="78.156"/><use xlink:href="#22" y="80.327"/><use xlink:href="#24" y="82.498"/><use xlink:href="#25" y="84.669"/><use xlink:href="#26" y="86.84"/><use xlink:href="#27" y="89.011"/><use xlink:href="#29" y="93.353"/><use xlink:href="#30" y="95.524"/><use xlink:href="#31" y="97.695"/><use xlink:href="#32" y="99.866"/><use xlink:href="#33" y="102.037"/><use xlink:href="#34" y="104.208"/><use xlink:href="#35" y="106.379"/><use xlink:href="#36" y="108.55"/><use xlink:href="#37" y="110.721"/><text y="114.562" class="c">[</text><text x="1.002" y="114.562" class="d">eduadmin@TEST-REDOS-8</text><text x="23.046" y="114.562" class="c">~]</text><text x="25.05" y="114.562" class="e">$</text><text x="27.054" y="114.562" class="c">ex</text></svg><svg x="1632"><use xlink:href="#a"/><use xlink:href="#b" x="29.996" y="112.867"/><use xlink:href="#6" y="2.171"/><use xlink:href="#7" y="4.342"/><use xlink:href="#8" y="6.513"/><use xlink:href="#9" y="8.684"/><use xlink:href="#10" y="10.855"/><use xlink:href="#11" y="13.026"/><use xlink:href="#12" y="15.197"/><use xlink:href="#13" y="17.368"/><use xlink:href="#14" y="19.539"/><use xlink:href="#15" y="21.71"/><use xlink:href="#16" y="23.881"/><use xlink:href="#17" y="26.052"/><use xlink:href="#18" y="28.223"/><use xlink:href="#19" y="30.394"/><use xlink:href="#20" y="32.565"/><use xlink:href="#21" y="34.736"/><use xlink:href="#22" y="36.907"/><use xlink:href="#23" y="39.078"/><use xlink:href="#24" y="41.249"/><use xlink:href="#25" y="43.42"/><use xlink:href="#26" y="45.591"/><use xlink:href="#27" y="47.762"/><use xlink:href="#28" y="52.104"/><use xlink:href="#10" y="54.275"/><use xlink:href="#11" y="56.446"/><use xlink:href="#12" y="58.617"/><use xlink:href="#13" y="60.788"/><use xlink:href="#14" y="62.959"/><use xlink:href="#15" y="65.13"/><use xlink:href="#16" y="67.301"/><use xlink:href="#17" y="69.472"/><use xlink:href="#18" y="71.643"/><use xlink:href="#19" y="73.814"/><use xlink:href="#20" y="75.985"/><use xlink:href="#21" y="78.156"/><use xlink:href="#22" y="80.327"/><use xlink:href="#24" y="82.498"/><use xlink:href="#25" y="84.669"/><use xlink:href="#26" y="86.84"/><use xlink:href="#27" y="89.011"/><use xlink:href="#29" y="93.353"/><use xlink:href="#30" y="95.524"/><use xlink:href="#31" y="97.695"/><use xlink:href="#32" y="99.866"/><use xlink:href="#33" y="102.037"/><use xlink:href="#34" y="104.208"/><use xlink:href="#35" y="106.379"/><use xlink:href="#36" y="108.55"/><use xlink:href="#37" y="110.721"/><text y="114.562" class="c">[</text><text x="1.002" y="114.562" class="d">eduadmin@TEST-REDOS-8</text><text x="23.046" y="114.562" class="c">~]</text><text x="25.05" y="114.562" class="e">$</text><text x="27.054" y="114.562" class="c">exi</text></svg><svg x="1734"><use xlink:href="#a"/><use xlink:href="#b" x="30.996" y="112.867"/><use xlink:href="#6" y="2.171"/><use xlink:href="#7" y="4.342"/><use xlink:href="#8" y="6.513"/><use xlink:href="#9" y="8.684"/><use xlink:href="#10" y="10.855"/><use xlink:href="#11" y="13.026"/><use xlink:href="#12" y="15.197"/><use xlink:href="#13" y="17.368"/><use xlink:href="#14" y="19.539"/><use xlink:href="#15" y="21.71"/><use xlink:href="#16" y="23.881"/><use xlink:href="#17" y="26.052"/><use xlink:href="#18" y="28.223"/><use xlink:href="#19" y="30.394"/><use xlink:href="#20" y="32.565"/><use xlink:href="#21" y="34.736"/><use xlink:href="#22" y="36.907"/><use xlink:href="#23" y="39.078"/><use xlink:href="#24" y="41.249"/><use xlink:href="#25" y="43.42"/><use xlink:href="#26" y="45.591"/><use xlink:href="#27" y="47.762"/><use xlink:href="#28" y="52.104"/><use xlink:href="#10" y="54.275"/><use xlink:href="#11" y="56.446"/><use xlink:href="#12" y="58.617"/><use xlink:href="#13" y="60.788"/><use xlink:href="#14" y="62.959"/><use xlink:href="#15" y="65.13"/><use xlink:href="#16" y="67.301"/><use xlink:href="#17" y="69.472"/><use xlink:href="#18" y="71.643"/><use xlink:href="#19" y="73.814"/><use xlink:href="#20" y="75.985"/><use xlink:href="#21" y="78.156"/><use xlink:href="#22" y="80.327"/><use xlink:href="#24" y="82.498"/><use xlink:href="#25" y="84.669"/><use xlink:href="#26" y="86.84"/><use xlink:href="#27" y="89.011"/><use xlink:href="#29" y="93.353"/><use xlink:href="#30" y="95.524"/><use xlink:href="#31" y="97.695"/><use xlink:href="#32" y="99.866"/><use xlink:href="#33" y="102.037"/><use xlink:href="#34" y="104.208"/><use xlink:href="#35" y="106.379"/><use xlink:href="#36" y="108.55"/><use xlink:href="#37" y="110.721"/><use xlink:href="#38" y="112.892"/></svg><svg x="1836"><use xlink:href="#a"/><use xlink:href="#b" x="-.004" y="112.867"/><use xlink:href="#6"/><use xlink:href="#7" y="2.171"/><use xlink:href="#8" y="4.342"/><use xlink:href="#9" y="6.513"/><use xlink:href="#10" y="8.684"/><use xlink:href="#11" y="10.855"/><use xlink:href="#12" y="13.026"/><use xlink:href="#13" y="15.197"/><use xlink:href="#14" y="17.368"/><use xlink:href="#15" y="19.539"/><use xlink:href="#16" y="21.71"/><use xlink:href="#17" y="23.881"/><use xlink:href="#18" y="26.052"/><use xlink:href="#19" y="28.223"/><use xlink:href="#20" y="30.394"/><use xlink:href="#21" y="32.565"/><use xlink:href="#22" y="34.736"/><use xlink:href="#23" y="36.907"/><use xlink:href="#24" y="39.078"/><use xlink:href="#25" y="41.249"/><use xlink:href="#26" y="43.42"/><use xlink:href="#27" y="45.591"/><use xlink:href="#28" y="49.933"/><use xlink:href="#10" y="52.104"/><use xlink:href="#11" y="54.275"/><use xlink:href="#12" y="56.446"/><use xlink:href="#13" y="58.617"/><use xlink:href="#14" y="60.788"/><use xlink:href="#15" y="62.959"/><use xlink:href="#16" y="65.13"/><use xlink:href="#17" y="67.301"/><use xlink:href="#18" y="69.472"/><use xlink:href="#19" y="71.643"/><use xlink:href="#20" y="73.814"/><use xlink:href="#21" y="75.985"/><use xlink:href="#22" y="78.156"/><use xlink:href="#24" y="80.327"/><use xlink:href="#25" y="82.498"/><use xlink:href="#26" y="84.669"/><use xlink:href="#27" y="86.84"/><use xlink:href="#29" y="91.182"/><use xlink:href="#30" y="93.353"/><use xlink:href="#31" y="95.524"/><use xlink:href="#32" y="97.695"/><use xlink:href="#33" y="99.866"/><use xlink:href="#34" y="102.037"/><use xlink:href="#35" y="104.208"/><use xlink:href="#36" y="106.379"/><use xlink:href="#37" y="108.55"/><use xlink:href="#38" y="110.721"/></svg><svg x="1938"><use xlink:href="#a"/><use xlink:href="#b" x="3.996" y="112.867"/><use xlink:href="#6"/><use xlink:href="#7" y="2.171"/><use xlink:href="#8" y="4.342"/><use xlink:href="#9" y="6.513"/><use xlink:href="#10" y="8.684"/><use xlink:href="#11" y="10.855"/><use xlink:href="#12" y="13.026"/><use xlink:href="#13" y="15.197"/><use xlink:href="#14" y="17.368"/><use xlink:href="#15" y="19.539"/><use xlink:href="#16" y="21.71"/><use xlink:href="#17" y="23.881"/><use xlink:href="#18" y="26.052"/><use xlink:href="#19" y="28.223"/><use xlink:href="#20" y="30.394"/><use xlink:href="#21" y="32.565"/><use xlink:href="#22" y="34.736"/><use xlink:href="#23" y="36.907"/><use xlink:href="#24" y="39.078"/><use xlink:href="#25" y="41.249"/><use xlink:href="#26" y="43.42"/><use xlink:href="#27" y="45.591"/><use xlink:href="#28" y="49.933"/><use xlink:href="#10" y="52.104"/><use xlink:href="#11" y="54.275"/><use xlink:href="#12" y="56.446"/><use xlink:href="#13" y="58.617"/><use xlink:href="#14" y="60.788"/><use xlink:href="#15" y="62.959"/><use xlink:href="#16" y="65.13"/><use xlink:href="#17" y="67.301"/><use xlink:href="#18" y="69.472"/><use xlink:href="#19" y="71.643"/><use xlink:href="#20" y="73.814"/><use xlink:href="#21" y="75.985"/><use xlink:href="#22" y="78.156"/><use xlink:href="#24" y="80.327"/><use xlink:href="#25" y="82.498"/><use xlink:href="#26" y="84.669"/><use xlink:href="#27" y="86.84"/><use xlink:href="#29" y="91.182"/><use xlink:href="#30" y="93.353"/><use xlink:href="#31" y="95.524"/><use xlink:href="#32" y="97.695"/><use xlink:href="#33" y="99.866"/><use xlink:href="#34" y="102.037"/><use xlink:href="#35" y="104.208"/><use xlink:href="#36" y="106.379"/><use xlink:href="#37" y="108.55"/><use xlink:href="#38" y="110.721"/><use xlink:href="#39" y="112.892"/></svg><svg x="2040"><use xlink:href="#a"/><use xlink:href="#b" x="-.004" y="112.867"/><use xlink:href="#7"/><use xlink:href="#8" y="2.171"/><use xlink:href="#9" y="4.342"/><use xlink:href="#10" y="6.513"/><use xlink:href="#11" y="8.684"/><use xlink:href="#12" y="10.855"/><use xlink:href="#13" y="13.026"/><use xlink:href="#14" y="15.197"/><use xlink:href="#15" y="17.368"/><use xlink:href="#16" y="19.539"/><use xlink:href="#17" y="21.71"/><use xlink:href="#18" y="23.881"/><use xlink:href="#19" y="26.052"/><use xlink:href="#20" y="28.223"/><use xlink:href="#21" y="30.394"/><use xlink:href="#22" y="32.565"/><use xlink:href="#23" y="34.736"/><use xlink:href="#24" y="36.907"/><use xlink:href="#25" y="39.078"/><use xlink:href="#26" y="41.249"/><use xlink:href="#27" y="43.42"/><use xlink:href="#28" y="47.762"/><use xlink:href="#10" y="49.933"/><use xlink:href="#11" y="52.104"/><use xlink:href="#12" y="54.275"/><use xlink:href="#13" y="56.446"/><use xlink:href="#14" y="58.617"/><use xlink:href="#15" y="60.788"/><use xlink:href="#16" y="62.959"/><use xlink:href="#17" y="65.13"/><use xlink:href="#18" y="67.301"/><use xlink:href="#19" y="69.472"/><use xlink:href="#20" y="71.643"/><use xlink:href="#21" y="73.814"/><use xlink:href="#22" y="75.985"/><use xlink:href="#24" y="78.156"/><use xlink:href="#25" y="80.327"/><use xlink:href="#26" y="82.498"/><use xlink:href="#27" y="84.669"/><use xlink:href="#29" y="89.011"/><use xlink:href="#30" y="91.182"/><use xlink:href="#31" y="93.353"/><use xlink:href="#32" y="95.524"/><use xlink:href="#33" y="97.695"/><use xlink:href="#34" y="99.866"/><use xlink:href="#35" y="102.037"/><use xlink:href="#36" y="104.208"/><use xlink:href="#37" y="106.379"/><use xlink:href="#38" y="108.55"/><use xlink:href="#39" y="110.721"/></svg></svg></g></g></svg></svg>