<svg xmlns="http://www.w3.org/2000/svg" xmlns:xlink="http://www.w3.org/1999/xlink" width="1020" height="100"><rect width="1020" height="1150.63" rx="0" ry="0" class="a"/><svg height="1150.63" viewBox="0 0 102 115.063" width="1020" xmlns="http://www.w3.org/2000/svg" xmlns:xlink="http://www.w3.org/1999/xlink"><style>@keyframes h{0%{transform:translateX(0)}2.1%{transform:translateX(-102px)}2.2%{transform:translateX(-204px)}12.8%{transform:translateX(-306px)}25.2%{transform:translateX(-408px)}25.4%{transform:translateX(-510px)}76%{transform:translateX(-612px)}77.5%{transform:translateX(-816px)}77.6%{transform:translateX(-918px)}88.7%{transform:translateX(-1020px)}91.9%{transform:translateX(-1122px)}93.3%{transform:translateX(-1224px)}95.7%{transform:translateX(-1326px)}to{transform:translateX(-1632px)}}.a{fill:#282d35}.c,.d,.e{fill:#b9c0cb;white-space:pre}.d,.e{fill:#a8cc8c;font-weight:700}.e{fill:#dbab79}</style><g font-family="Monaco,Consolas,Menlo,'Bitstream Vera Sans Mono','Powerline Symbols',monospace" font-size="1.67"><defs><symbol id="1"><text y="1.67" class="c">[</text><text x="1.002" y="1.67" class="d">eduadmin@TEST-REDOS-8</text><text x="23.046" y="1.67" class="c">scripts]</text><text x="31.062" y="1.67" class="e">$</text></symbol><symbol id="2"><text y="1.67" class="c">[</text><text x="1.002" y="1.67" class="d">eduadmin@TEST-REDOS-8</text><text x="23.046" y="1.67" class="c">scripts]</text><text x="31.062" y="1.67" class="e">$</text><text x="33.066" y="1.67" class="c">sudo</text><text x="38.076" y="1.67" class="c">~/scripts/redos_workstation_setup_tool_cli.sh</text><text x="84.168" y="1.67" class="c">version</text></symbol><symbol id="3"><text y="1.67" class="c">[sudo]</text><text x="7.014" y="1.67" class="c">пароль</text><text x="14.028" y="1.67" class="c">для</text><text x="18.036" y="1.67" class="c">eduadmin:</text></symbol><symbol id="4"><text y="1.67" class="c">redos-setup</text><text x="12.024" y="1.67" class="c">CLI</text><text x="16.032" y="1.67" class="c">2.9.0</text></symbol><symbol id="5"><text y="1.67" class="c">[</text><text x="1.002" y="1.67" class="d">eduadmin@TEST-REDOS-8</text><text x="23.046" y="1.67" class="c">scripts]</text><text x="31.062" y="1.67" class="e">$</text><text x="33.066" y="1.67" class="c">exit</text></symbol><symbol id="6"><text y="1.67" class="c">exit</text></symbol><symbol id="a"><path fill="transparent" d="M0 0h102v53H0z"/></symbol><symbol id="b"><path fill="#6f7683" d="M0 0h1.102v2.171H0z"/></symbol></defs><path class="a" d="M0 0h102v115.063H0z"/><g style="animation-duration:2.65514275s;animation-iteration-count:infinite;animation-name:h;animation-timing-function:steps(1,end)"><svg width="1734"><svg><use xlink:href="#a"/><use xlink:href="#b" x="-.004"/></svg><svg x="102"><use xlink:href="#a"/><use xlink:href="#b" x="-.004"/></svg><svg x="204"><use xlink:href="#a"/><use xlink:href="#b" x="32.996"/><use xlink:href="#1"/></svg><svg x="306"><use xlink:href="#a"/><use xlink:href="#b" x="90.996"/><text y="1.67" class="c">[</text><text x="1.002" y="1.67" class="d">eduadmin@TEST-REDOS-8</text><text x="23.046" y="1.67" class="c">scripts]</text><text x="31.062" y="1.67" class="e">$</text><path fill="#b9c0cb" d="M33.066 0h58v2.171h-58z"/><text x="33.066" y="1.67" style="white-space:pre" fill="#282d35">sudo ~/scripts/redos_workstation_setup_tool_cli.sh version</text></svg><svg x="408"><use xlink:href="#a"/><use xlink:href="#b" x="-.004" y="2.146"/><use xlink:href="#2"/></svg><svg x="510"><use xlink:href="#a"/><use xlink:href="#b" x="27.996" y="2.146"/><use xlink:href="#2"/><use xlink:href="#3" y="2.171"/></svg><svg x="612"><use xlink:href="#a"/><use xlink:href="#b" x="-.004" y="4.317"/><use xlink:href="#2"/><use xlink:href="#3" y="2.171"/></svg><svg x="714"><use xlink:href="#a"/><use xlink:href="#b" x="20.996" y="4.317"/><use xlink:href="#2"/><use xlink:href="#3" y="2.171"/><use xlink:href="#4" y="4.342"/></svg><svg x="816"><use xlink:href="#a"/><use xlink:href="#b" x="-.004" y="6.488"/><use xlink:href="#2"/><use xlink:href="#3" y="2.171"/><use xlink:href="#4" y="4.342"/></svg><svg x="918"><use xlink:href="#a"/><use xlink:href="#b" x="32.996" y="6.488"/><use xlink:href="#2"/><use xlink:href="#3" y="2.171"/><use xlink:href="#4" y="4.342"/><use xlink:href="#1" y="6.513"/></svg><svg x="1020"><use xlink:href="#a"/><use xlink:href="#b" x="33.996" y="6.488"/><use xlink:href="#2"/><use xlink:href="#3" y="2.171"/><use xlink:href="#4" y="4.342"/><text y="8.183" class="c">[</text><text x="1.002" y="8.183" class="d">eduadmin@TEST-REDOS-8</text><text x="23.046" y="8.183" class="c">scripts]</text><text x="31.062" y="8.183" class="e">$</text><text x="33.066" y="8.183" class="c">e</text></svg><svg x="1122"><use xlink:href="#a"/><use xlink:href="#b" x="34.996" y="6.488"/><use xlink:href="#2"/><use xlink:href="#3" y="2.171"/><use xlink:href="#4" y="4.342"/><text y="8.183" class="c">[</text><text x="1.002" y="8.183" class="d">eduadmin@TEST-REDOS-8</text><text x="23.046" y="8.183" class="c">scripts]</text><text x="31.062" y="8.183" class="e">$</text><text x="33.066" y="8.183" class="c">ex</text></svg><svg x="1224"><use xlink:href="#a"/><use xlink:href="#b" x="35.996" y="6.488"/><use xlink:href="#2"/><use xlink:href="#3" y="2.171"/><use xlink:href="#4" y="4.342"/><text y="8.183" class="c">[</text><text x="1.002" y="8.183" class="d">eduadmin@TEST-REDOS-8</text><text x="23.046" y="8.183" class="c">scripts]</text><text x="31.062" y="8.183" class="e">$</text><text x="33.066" y="8.183" class="c">exi</text></svg><svg x="1326"><use xlink:href="#a"/><use xlink:href="#b" x="36.996" y="6.488"/><use xlink:href="#2"/><use xlink:href="#3" y="2.171"/><use xlink:href="#4" y="4.342"/><use xlink:href="#5" y="6.513"/></svg><svg x="1428"><use xlink:href="#a"/><use xlink:href="#b" x="-.004" y="8.659"/><use xlink:href="#2"/><use xlink:href="#3" y="2.171"/><use xlink:href="#4" y="4.342"/><use xlink:href="#5" y="6.513"/></svg><svg x="1530"><use xlink:href="#a"/><use xlink:href="#b" x="3.996" y="8.659"/><use xlink:href="#2"/><use xlink:href="#3" y="2.171"/><use xlink:href="#4" y="4.342"/><use xlink:href="#5" y="6.513"/><use xlink:href="#6" y="8.684"/></svg><svg x="1632"><use xlink:href="#a"/><use xlink:href="#b" x="-.004" y="10.83"/><use xlink:href="#2"/><use xlink:href="#3" y="2.171"/><use xlink:href="#4" y="4.342"/><use xlink:href="#5" y="6.513"/><use xlink:href="#6" y="8.684"/></svg></svg></g></g></svg></svg>